<svg xmlns="http://www.w3.org/2000/svg" xmlns:xlink="http://www.w3.org/1999/xlink" width="1748.0000" height="2551.0000"><g><path fill="#000000FF" d="M 460.9 1203.3 C 460.9 1203.3 462.5 1203.5 463.0 1204.1 C 463.6 1204.9 463.2 1207.3 463.1 1208.2 C 461.8 1220.2 460.6 1232.1 459.3 1244.0 C 458.3 1253.3 457.7 1262.7 456.9 1272.0 C 455.3 1293.0 453.6 1314.0 451.9 1334.9 C 451.6 1338.9 449.9 1341.5 446.6 1337.8 C 446.4 1337.6 446.4 1337.6 446.4 1337.6 C 446.4 1337.6 446.1 1336.3 446.4 1335.8 C 446.7 1335.5 446.8 1334.3 446.9 1333.7 C 447.8 1321.1 448.6 1308.3 449.5 1295.6 C 451.5 1268.8 454.1 1242.1 457.3 1215.3 C 457.4 1215.0 456.8 1216.1 456.5 1216.6 C 454.5 1219.9 452.5 1223.3 450.6 1226.6 C 446.1 1234.4 440.5 1242.7 436.2 1249.5 C 426.0 1265.8 417.1 1283.0 405.4 1298.3 C 401.4 1303.6 392.5 1315.1 386.2 1319.6 C 385.0 1320.4 380.8 1322.8 379.1 1321.9 C 377.5 1321.1 378.8 1318.0 380.3 1317.8 C 380.9 1317.8 383.5 1316.3 384.5 1315.3 C 387.0 1312.4 389.6 1309.6 392.1 1306.7 C 396.5 1301.8 401.0 1297.0 404.6 1291.5 C 418.6 1270.0 431.6 1248.0 445.2 1226.3 C 448.8 1220.6 452.6 1215.1 455.7 1209.2 C 456.9 1207.0 462.4 1199.3 463.2 1205.9 " /><path fill="#000000FF" d="M 485.7 1268.5 C 485.7 1268.5 493.8 1268.8 497.8 1269.0 C 500.4 1269.1 511.5 1270.5 510.5 1275.3 C 510.0 1278.0 506.7 1276.2 504.9 1276.0 C 498.6 1275.6 489.0 1274.1 481.3 1274.5 C 440.8 1276.3 400.2 1277.9 359.6 1279.1 C 359.3 1279.1 358.7 1279.4 358.5 1279.3 C 358.2 1279.1 358.0 1279.1 357.9 1279.1 C 357.9 1279.1 354.7 1277.4 355.2 1276.2 C 356.5 1273.4 361.8 1273.5 364.4 1273.4 C 384.2 1272.7 404.1 1271.9 424.0 1271.2 C 449.6 1270.2 479.8 1264.4 505.2 1270.4 " /><path fill="#000000FF" d="M 482.8 1167.3 C 482.8 1167.3 485.9 1168.6 487.4 1169.3 C 490.6 1170.7 493.7 1171.9 497.0 1173.1 C 505.0 1176.0 513.4 1182.7 519.4 1188.5 C 521.0 1190.0 522.4 1191.9 523.6 1193.8 C 524.6 1195.4 525.7 1196.9 526.7 1198.5 C 527.0 1199.0 528.2 1200.2 527.6 1200.0 C 527.0 1199.7 528.2 1200.5 528.6 1201.0 C 529.8 1202.3 531.6 1203.8 532.5 1205.5 C 535.0 1210.5 537.4 1215.6 539.8 1220.7 C 541.3 1223.8 540.8 1227.7 541.8 1231.0 C 545.5 1243.2 548.6 1254.3 548.6 1267.3 C 548.6 1267.6 548.5 1268.8 548.4 1269.4 C 547.6 1277.9 547.6 1283.5 545.8 1290.9 C 542.5 1304.9 535.4 1315.7 528.2 1327.9 C 510.2 1358.7 471.7 1371.9 437.3 1371.5 C 421.3 1371.4 401.6 1370.0 386.8 1363.3 C 362.5 1352.2 341.1 1330.5 337.8 1303.0 C 336.6 1293.3 337.6 1282.0 339.3 1272.3 C 341.6 1258.6 345.4 1247.2 354.1 1236.2 C 354.3 1236.0 357.5 1231.7 359.2 1229.5 C 361.3 1226.6 362.6 1223.3 364.7 1220.5 C 372.2 1210.2 382.8 1201.7 395.1 1198.3 C 395.4 1198.2 398.3 1197.3 399.5 1197.9 C 401.2 1198.7 401.3 1201.4 399.8 1202.2 C 399.5 1202.3 399.2 1202.8 398.9 1202.9 C 398.6 1202.9 391.4 1205.2 387.9 1206.7 C 383.7 1208.6 380.3 1213.2 376.9 1216.2 C 374.5 1218.4 371.2 1219.9 369.7 1222.7 C 364.9 1231.5 357.3 1239.0 352.8 1247.8 C 344.9 1263.8 341.5 1284.0 343.7 1301.8 C 346.8 1327.3 365.1 1345.5 387.1 1357.1 C 400.7 1364.2 421.9 1365.6 437.0 1365.6 C 464.4 1365.6 496.2 1357.7 515.2 1337.0 C 519.5 1332.4 522.5 1326.3 525.8 1321.0 C 529.9 1314.3 534.2 1307.5 537.1 1300.1 C 546.1 1276.8 542.6 1254.8 536.2 1231.9 C 530.0 1209.6 519.6 1192.3 498.1 1179.8 C 497.8 1179.6 494.3 1178.4 492.6 1177.7 C 488.4 1176.0 484.2 1174.3 480.0 1172.6 C 473.2 1169.8 465.1 1169.5 458.0 1167.5 C 452.4 1166.0 448.1 1164.0 442.3 1164.7 C 433.7 1165.8 422.1 1168.1 413.7 1172.8 C 410.4 1174.7 407.7 1177.6 404.7 1180.0 C 403.8 1180.7 401.4 1182.1 400.7 1180.2 C 400.2 1179.1 401.6 1177.8 402.2 1177.1 C 409.1 1169.3 412.1 1166.6 421.6 1163.6 C 445.1 1156.2 467.3 1160.5 490.2 1170.5 M 548.6 1267.6 C 548.6 1267.6 548.6 1267.6 548.6 1267.6 C 548.6 1267.6 548.6 1267.6 548.6 1267.6 M 395.4 1198.2 C 395.4 1198.2 395.4 1198.2 395.4 1198.2 " /><path fill="#000000FF" d="M 408.9 1176.6 C 408.9 1176.6 409.9 1177.1 410.1 1177.5 C 410.1 1177.8 411.6 1180.2 412.4 1181.3 C 413.8 1183.4 414.7 1186.0 415.0 1188.5 C 416.3 1197.6 418.4 1207.6 416.2 1216.8 C 415.4 1220.1 414.6 1223.5 413.8 1226.9 C 413.6 1227.7 413.2 1229.8 412.2 1230.1 C 410.0 1230.7 409.9 1227.5 409.9 1226.3 C 410.4 1211.7 413.3 1195.2 406.1 1181.6 C 406.0 1181.4 404.9 1178.4 405.7 1177.2 C 406.6 1176.0 409.0 1176.7 409.9 1177.3 M 406.0 1181.4 C 406.0 1181.4 405.7 1181.4 405.7 1181.4 " /><path fill="#000000FF" d="M 398.9 1237.2 C 398.9 1237.2 398.9 1237.2 398.9 1237.2 M 391.2 1229.8 C 391.2 1229.8 391.2 1229.8 391.2 1229.8 C 391.2 1229.8 391.2 1229.8 391.2 1229.8 M 391.2 1223.9 C 391.2 1223.9 391.2 1223.9 391.2 1223.9 M 416.0 1216.2 C 416.0 1216.2 416.0 1216.2 416.0 1216.2 C 416.0 1215.9 416.0 1215.9 416.0 1215.9 M 392.1 1223.0 C 392.1 1223.0 392.6 1221.1 393.0 1221.5 C 393.3 1221.8 396.1 1220.9 396.5 1221.8 C 397.5 1223.8 396.0 1227.3 396.0 1230.1 C 396.0 1230.4 399.9 1231.7 401.9 1232.4 C 402.2 1232.5 408.8 1230.3 409.5 1227.4 C 410.5 1223.7 411.5 1220.5 412.1 1216.2 C 412.2 1215.0 410.9 1214.2 411.3 1213.0 C 412.5 1209.7 415.6 1214.3 416.0 1215.6 C 416.0 1215.9 415.6 1219.7 415.4 1221.5 C 415.0 1224.3 414.6 1228.2 413.4 1230.7 C 410.8 1235.9 404.4 1237.2 399.2 1237.2 C 398.9 1237.2 396.7 1236.3 395.7 1235.8 C 395.4 1235.7 394.4 1235.5 393.9 1235.3 C 393.6 1235.1 393.4 1234.9 393.3 1234.8 C 393.3 1234.8 391.1 1232.8 390.5 1231.4 C 389.4 1229.1 389.9 1226.5 391.1 1224.2 " /></g></svg>